# xmcd CD database file
#
# Track frame offsets:
#	150
#	18362
#	39095
#
# Disc length: 762 seconds
#
# Revision: 0
# Processed by: cddbd v1.5.1PL2 Copyright (c) Steve Scherf et al.
# Submitted via: CDex 1.51
#
DISCID=1402f803
DTITLE=佐々木ゆう子 - 恋はC'est si bon
DYEAR=1997
DGENRE=J-POP
TTITLE0=恋はC'est si bon
TTITLE1=勉強しようよ
TTITLE2=恋はC'est si bon (instrumental)
EXTD=YEAR: 1997
EXTT0=
EXTT1=
EXTT2=
PLAYORDER=
